<?xml version="1.0" encoding="UTF-8" standalone="no"?>
<!-- Generator: Adobe Illustrator 16.0.0, SVG Export Plug-In . SVG Version: 6.00 Build 0)  -->

<svg
   xmlns:dc="http://purl.org/dc/elements/1.1/"
   xmlns:cc="http://creativecommons.org/ns#"
   xmlns:rdf="http://www.w3.org/1999/02/22-rdf-syntax-ns#"
   xmlns:svg="http://www.w3.org/2000/svg"
   xmlns="http://www.w3.org/2000/svg"
   xmlns:sodipodi="http://sodipodi.sourceforge.net/DTD/sodipodi-0.dtd"
   xmlns:inkscape="http://www.inkscape.org/namespaces/inkscape"
   version="1.1"
   id="Layer_1"
   x="0px"
   y="0px"
   width="237.6077"
   height="509.05994"
   viewBox="0 0 237.6077 509.05994"
   enable-background="new 0 0 512 512"
   xml:space="preserve"
   inkscape:version="0.91 r13725"
   sodipodi:docname="facebook-blue.svg"><metadata
     id="metadata3350"><rdf:RDF><cc:Work
         rdf:about=""><dc:format>image/svg+xml</dc:format><dc:type
           rdf:resource="http://purl.org/dc/dcmitype/StillImage" /><dc:title></dc:title></cc:Work></rdf:RDF></metadata><defs
     id="defs3348" /><sodipodi:namedview
     pagecolor="#ffffff"
     bordercolor="#666666"
     borderopacity="1"
     objecttolerance="10"
     gridtolerance="10"
     guidetolerance="10"
     inkscape:pageopacity="0"
     inkscape:pageshadow="2"
     inkscape:window-width="2560"
     inkscape:window-height="1377"
     id="namedview3346"
     showgrid="false"
     fit-margin-top="0"
     fit-margin-left="0"
     fit-margin-right="0"
     fit-margin-bottom="0"
     inkscape:zoom="2.359375"
     inkscape:cx="26.519327"
     inkscape:cy="254.7427"
     inkscape:window-x="-8"
     inkscape:window-y="-8"
     inkscape:window-maximized="1"
     inkscape:current-layer="Layer_1" /><text
     id="text3337"
     x="31.488159"
     y="542.12659"><tspan
       x="31.488159"
       y="542.12659"
       font-size="20"
       id="tspan3339"
       style="font-size:20px;font-family:Verdana-Bold;fill:#ffff00">simpleicon.com</tspan><tspan
       x="-128.10184"
       y="566.12659"
       font-size="20"
       id="tspan3341"
       style="font-size:20px;font-family:Verdana;fill:#ffff00">Collection Of Flat Icon, Symbols And Glyph Icons</tspan></text>
<g
     id="_x23_020201ff"
     style="fill:#3b5998;fill-opacity:1"
     transform="matrix(1.2355813,0,0,1.2355813,-197.5052,-61.779868)"><path
       d="m 223.22,71.227 c 16.066,-15.298 38.918,-20.465 60.475,-21.109 22.799,-0.205 45.589,-0.081 68.388,-0.072 0.09,24.051 0.098,48.111 -0.009,72.161 -14.734,-0.026 -29.478,0.036 -44.212,-0.026 -9.343,-0.582 -18.937,6.5 -20.635,15.762 -0.224,16.093 -0.081,32.195 -0.072,48.289 21.61,0.089 43.22,-0.027 64.829,0.054 -1.582,23.281 -4.47,46.456 -7.858,69.541 -19.088,0.179 -38.187,-0.018 -57.274,0.099 -0.17,68.665 0.089,137.33 -0.134,205.995 -28.352,0.116 -56.721,-0.054 -85.072,0.08 -0.537,-68.674 0.044,-137.383 -0.295,-206.066 -13.832,-0.144 -27.672,0.099 -41.503,-0.116 0.053,-23.085 0.018,-46.169 0.026,-69.246 13.822,-0.169 27.654,0.036 41.477,-0.098 0.42,-22.442 -0.421,-44.91 0.438,-67.333 1.386,-17.758 8.154,-35.649 21.431,-47.915 z"
       id="path3344"
       style="fill:#3b5998;fill-opacity:1"
       inkscape:connector-curvature="0" /></g></svg>