<?xml version="1.0" encoding="UTF-8" standalone="no"?>
<svg
   xmlns:dc="http://purl.org/dc/elements/1.1/"
   xmlns:cc="http://creativecommons.org/ns#"
   xmlns:rdf="http://www.w3.org/1999/02/22-rdf-syntax-ns#"
   xmlns:svg="http://www.w3.org/2000/svg"
   xmlns="http://www.w3.org/2000/svg"
   xmlns:sodipodi="http://sodipodi.sourceforge.net/DTD/sodipodi-0.dtd"
   xmlns:inkscape="http://www.inkscape.org/namespaces/inkscape"
   width="602"
   height="118"
   viewBox="0 0 602 118"
   id="svg2"
   version="1.1"
   inkscape:version="0.91 r13725"
   sodipodi:docname="logo2_white.svg">
  <metadata
     id="metadata11">
    <rdf:RDF>
      <cc:Work
         rdf:about="">
        <dc:format>image/svg+xml</dc:format>
        <dc:type
           rdf:resource="http://purl.org/dc/dcmitype/StillImage" />
        <dc:title></dc:title>
      </cc:Work>
    </rdf:RDF>
  </metadata>
  <sodipodi:namedview
     pagecolor="#a7a7a7"
     bordercolor="#666666"
     borderopacity="1"
     objecttolerance="10"
     gridtolerance="10"
     guidetolerance="10"
     inkscape:pageopacity="0"
     inkscape:pageshadow="2"
     inkscape:window-width="1675"
     inkscape:window-height="963"
     id="namedview9"
     showgrid="false"
     inkscape:zoom="0.4551495"
     inkscape:cx="301"
     inkscape:cy="59"
     inkscape:window-x="0"
     inkscape:window-y="0"
     inkscape:window-maximized="0"
     inkscape:current-layer="svg2" />
  <defs
     id="defs4">
    <style
       id="style6">
      .cls-1 {
        font-size: 75px;
        font-family: Noteworthy;
        font-weight: 700;
      }
    </style>
  </defs>
  <g
     style="font-weight:700;font-size:75px;font-family:Noteworthy;fill:#ffffff"
     id="Hyvän_mielen_pelit">
    <path
       d="m 71.974001,27.141998 q 0,0.84375 -1.3125,1.875 -1.3125,1.03125 -1.5,1.5 -2.4375,4.59375 -2.25,18.09375 l 0.09375,3.65625 q 0.28125,-0.09375 0.65625,-0.09375 1.40625,0 2.625,1.59375 1.3125,1.59375 1.3125,3.09375 0,1.125 -1.78125,1.59375 -1.40625,0.28125 -2.8125,0.5625 0.09375,4.40625 0.1875,8.90625 0.1875,5.71875 1.21875,8.53125 0.75,2.34375 0.75,3.09375 0,1.875 -1.40625,3.46875 -1.40625,1.5 -3.28125,1.5 -3.5625,0 -4.6875,-3.75 -0.1875,-0.75 -0.84375,-6.5625 -0.1875,-2.0625 -0.1875,-4.96875 l 0,-3.84375 q -0.09375,-3.84375 -0.46875,-6.28125 -5.4375,0.1875 -12.9375,1.59375 -6.46875,1.21875 -12.84375,2.4375 0.375,1.21875 0.375,10.125 0,7.125 2.15625,9.375 0.28125,0.46875 0.28125,0.9375 0,2.4375 -3.75,2.4375 -3.46875,0 -5.4375,-2.15625 -1.21875,-1.3125 -2.34375,-19.5 -1.78125,-0.375 -2.8125,-2.15625 -1.03125,-1.78125 -1.03125,-3.75 0,-1.125 1.21875,-1.5 1.21875,-0.46875 2.34375,-0.84375 0.09375,-1.21875 0.375,-4.40625 0.28125,-2.71875 0.28125,-4.3125 0,-16.5 1.78125,-21 1.5,-3.65625 5.15625,-3.65625 2.25,0 4.21875,1.5 1.96875,1.40625 1.96875,3.5625 0,1.125 -0.75,2.8125 -1.03125,2.25 -1.125,2.625 -2.53125,7.875 -2.53125,18.75 0,1.78125 0,2.15625 0.84375,-0.09375 4.40625,-0.75 11.0625,-2.25 20.8125,-2.25 0.28125,-13.78125 0.75,-17.8125 1.59375,-13.5 6.46875,-13.5 2.90625,0 4.78125,2.25 1.875,2.15625 1.875,5.0625 z"
       style="font-weight:700;font-size:75px;font-family:Noteworthy;fill:#ffffff"
       id="path4140" />
    <path
       d="m 112.17517,48.891998 q -0.84375,4.6875 -1.59375,9.28125 -0.9375,5.4375 -0.9375,9.28125 l 0,25.5 q 0,6.9375 -4.03125,10.593752 -3.9375,3.65625 -10.874997,3.65625 -4.5,0 -9.9375,-2.34375 -6.46875,-2.71875 -6.46875,-6.562502 0,-1.3125 1.03125,-2.25 1.125,-0.84375 2.4375,-0.84375 0.84375,0 4.03125,2.53125 3.1875,2.531252 7.3125,2.531252 5.25,0 7.031247,-3.843752 1.3125,-2.625 1.3125,-8.4375 0,-2.15625 -0.0937,-3.5625 -3.093747,2.0625 -6.937497,2.0625 -7.03125,0 -10.875,-5.0625 -3.46875,-4.59375 -3.46875,-11.71875 0,-0.75 0.9375,-23.625 2.8125,-1.21875 4.5,-1.21875 1.875,0 5.53125,2.25 -2.25,5.625 -2.25,22.5 0,10.78125 5.4375,10.78125 4.03125,0 6.187497,-6.75 1.59375,-4.875 1.59375,-10.125 l 0,-11.4375 q 0,0.09375 -0.28125,-3.09375 3.84375,-1.875 5.71875,-1.875 1.96875,0 4.6875,1.78125 z"
       style="font-weight:700;font-size:75px;font-family:Noteworthy;fill:#ffffff"
       id="path4142" />
    <path
       d="m 148.72009,48.985748 q 0,6.75 -4.3125,20.625 -5.0625,15.9375 -9.84375,15.9375 -6.84375,0 -12.1875,-13.40625 -3.28125,-8.34375 -5.34375,-19.5 -0.46875,-2.71875 -0.46875,-4.21875 0,-1.5 1.3125,-2.625 1.40625,-1.21875 2.90625,-1.21875 1.78125,0 5.53125,2.71875 -0.65625,2.15625 -0.65625,3.65625 0,5.0625 2.4375,13.21875 2.53125,8.15625 5.4375,12.28125 l 0,0.28125 q 3.375,0 5.25,-12.75 1.3125,-8.71875 1.3125,-15.9375 0,-1.40625 1.40625,-2.4375 1.5,-1.03125 2.90625,-1.03125 4.3125,0 4.3125,4.40625 z"
       style="font-weight:700;font-size:75px;font-family:Noteworthy;fill:#ffffff"
       id="path4144" />
    <path
       d="m 181.49744,39.141998 q 0,1.5 -1.3125,2.53125 -1.3125,0.9375 -2.90625,0.9375 -1.59375,0 -2.90625,-0.9375 -1.3125,-1.03125 -1.3125,-2.53125 0,-1.59375 1.3125,-2.53125 1.3125,-1.03125 2.90625,-1.03125 1.59375,0 2.90625,1.03125 1.3125,0.9375 1.3125,2.53125 z m -12.65625,0 q 0,1.5 -1.3125,2.53125 -1.3125,0.9375 -2.90625,0.9375 -1.59375,0 -2.90625,-0.9375 -1.3125,-1.03125 -1.3125,-2.53125 0,-1.59375 1.3125,-2.53125 1.3125,-1.03125 2.90625,-1.03125 1.59375,0 2.90625,1.03125 1.3125,0.9375 1.3125,2.53125 z m 18.9375,29.8125 q 0,12.09375 -0.75,17.0625 -0.46875,2.90625 -3.9375,2.90625 -5.25,0 -4.6875,-5.25 -4.6875,2.25 -9.75,2.25 -4.875,0 -9.28125,-2.4375 -5.25,-2.90625 -5.25,-7.40625 0,-4.40625 6,-8.25 5.4375,-3.46875 10.21875,-3.46875 l 7.96875,0 0,-2.25 q 0.0937,-9.84375 -5.8125,-9.84375 -7.40625,0 -7.40625,6.9375 0,2.34375 -2.625,2.34375 -1.59375,0 -3.375,-1.40625 -1.6875,-1.5 -1.6875,-3.09375 0,-5.25 3.75,-8.625 3.75,-3.375 9,-3.375 17.625,0 17.625,23.90625 z m -9.46875,3.375 q 0,-1.875 -2.8125,-1.875 -11.71875,0 -11.71875,5.53125 0,3 5.15625,3 3.1875,0 6,-1.78125 3.375,-1.96875 3.375,-4.875 z"
       style="font-weight:700;font-size:75px;font-family:Noteworthy;fill:#ffffff"
       id="path4146" />
    <path
       d="m 227.72791,84.235748 q -1.40625,2.15625 -3.46875,2.15625 -1.59375,0 -5.25,-1.875 l 0,-1.125 q 0,-2.0625 0.0937,-6.09375 0.1875,-4.03125 0.1875,-5.90625 0,-20.0625 -6,-20.0625 -1.6875,0 -3.84375,2.625 -6.65625,8.0625 -6.65625,19.40625 0,1.59375 0.5625,4.78125 0.65625,3.09375 0.65625,4.6875 0,1.3125 -1.21875,2.15625 -1.21875,0.84375 -2.625,0.84375 -5.625,0 -5.625,-7.125 l 0,-19.59375 q 0,-0.75 0.1875,-2.15625 0.1875,-1.5 0.1875,-2.25 0,-1.125 -0.375,-3.28125 -0.28125,-2.15625 -0.28125,-3.1875 0,-1.5 1.6875,-2.8125 1.78125,-1.40625 3.1875,-1.40625 2.0625,0 4.21875,2.34375 l -0.28125,3.75 q 3.46875,-5.53125 8.53125,-5.53125 3.28125,0 6.9375,2.25 3.65625,2.25 5.34375,5.0625 3.84375,7.125 3.84375,18.75 l 0,13.59375 z"
       style="font-weight:700;font-size:75px;font-family:Noteworthy;fill:#ffffff"
       id="path4148" />
    <path
       d="m 296.70447,84.704498 q -3.1875,1.96875 -4.875,1.96875 -1.21875,0 -3.75,-1.3125 0,-1.5 0.0937,-5.15625 0.0937,-3.28125 0.0937,-5.15625 0,-24.9375 -4.125,-24.9375 -3.09375,0 -4.96875,7.59375 -1.40625,5.53125 -1.40625,10.21875 l 0,8.625 q 0,0.65625 0.375,1.96875 0.46875,1.21875 0.46875,1.875 0,1.5 -1.59375,2.71875 -1.59375,1.125 -3.09375,1.125 -1.59375,0 -3.1875,-1.59375 -1.59375,-1.59375 -1.59375,-3.09375 l 0,-17.4375 q 0,-10.59375 -2.34375,-10.59375 -0.375,0 -1.59375,1.78125 -6.65625,9 -6.65625,19.3125 0,1.5 0.375,4.40625 0.375,2.8125 0.375,4.21875 0,1.875 -1.21875,3.09375 -1.125,1.21875 -3,1.21875 -2.15625,0 -3.46875,-1.5 -0.46875,-0.65625 -1.125,-4.40625 -0.5625,-3.46875 -0.5625,-4.78125 l 0,-20.4375 q 0,-2.25 1.125,-6 1.40625,-4.5 3,-4.5 1.875,0 3.375,1.5 1.5,1.40625 1.3125,3.28125 2.71875,-4.5 7.03125,-4.5 5.34375,0 8.71875,7.125 1.78125,-4.21875 3.1875,-5.8125 2.34375,-2.71875 5.8125,-2.71875 3.46875,0 7.03125,3.65625 6.1875,6.28125 6.1875,21.46875 l 0,16.78125 z"
       style="font-weight:700;font-size:75px;font-family:Noteworthy;fill:#ffffff"
       id="path4150" />
    <path
       d="m 316.02283,35.673248 q 0,2.0625 -1.40625,3.375 -1.40625,1.3125 -3.46875,1.3125 -2.4375,0 -4.59375,-1.6875 -2.0625,-1.6875 -2.0625,-4.125 0,-2.0625 1.40625,-3.375 1.5,-1.3125 3.65625,-1.3125 2.53125,0 4.5,1.6875 1.96875,1.59375 1.96875,4.125 z m -0.84375,13.125 q 0,1.6875 -0.75,4.78125 -0.75,3.09375 -0.75,4.78125 l 0,19.3125 q 0,1.78125 1.03125,5.625 -1.40625,2.15625 -3.09375,2.15625 -5.90625,0 -6.46875,-5.90625 -0.9375,-10.96875 -0.9375,-16.5 0,-9.28125 0.75,-15.5625 -0.0937,-0.46875 -0.0937,-0.9375 0,-1.6875 2.625,-1.6875 2.34375,0 4.6875,0.9375 3,1.03125 3,3 z"
       style="font-weight:700;font-size:75px;font-family:Noteworthy;fill:#ffffff"
       id="path4152" />
    <path
       d="m 349.34509,76.641998 q 0,4.6875 -6.375,7.3125 -4.96875,2.0625 -10.40625,2.0625 -14.4375,0 -14.4375,-16.40625 0,-6.75 3.28125,-15 4.03125,-10.125 9.75,-10.125 5.15625,0 11.0625,4.59375 6,4.59375 6,9.5625 0,6.1875 -5.53125,9.84375 -4.875,3.28125 -11.625,3.28125 -1.3125,0 -4.21875,-1.59375 0.375,8.90625 5.25,8.90625 4.125,0 8.0625,-2.34375 4.03125,-2.34375 5.15625,-2.34375 4.03125,0 4.03125,2.25 z m -10.21875,-17.71875 q 0,-2.34375 -1.40625,-4.40625 -1.3125,-2.15625 -3.5625,-2.15625 -3.09375,0 -4.78125,2.71875 -1.40625,2.34375 -1.40625,5.53125 0,1.78125 1.21875,2.90625 1.21875,1.125 3.09375,1.125 6.84375,0 6.84375,-5.71875 z"
       style="font-weight:700;font-size:75px;font-family:Noteworthy;fill:#ffffff"
       id="path4154" />
    <path
       d="m 364.8783,82.360748 q 0,1.6875 -1.40625,2.8125 -1.3125,1.21875 -3.09375,1.21875 -5.90625,0 -5.90625,-15.46875 0,-7.03125 0.0937,-21.09375 0.1875,-14.0625 0.1875,-21.09375 0,-1.125 -0.28125,-3.28125 -0.28125,-2.15625 -0.28125,-3.1875 3.09375,-2.0625 4.875,-2.0625 2.0625,0 3.9375,1.40625 1.875,1.3125 1.875,3.375 0,1.03125 -0.46875,2.4375 -0.65625,2.25 -0.75,2.4375 -1.21875,5.8125 -1.21875,16.5 0,16.96875 0,17.4375 0.28125,11.8125 1.96875,16.5 0.46875,1.3125 0.46875,2.0625 z"
       style="font-weight:700;font-size:75px;font-family:Noteworthy;fill:#ffffff"
       id="path4156" />
    <path
       d="m 400.02869,76.641998 q 0,4.6875 -6.375,7.3125 -4.96875,2.0625 -10.40625,2.0625 -14.4375,0 -14.4375,-16.40625 0,-6.75 3.28125,-15 4.03125,-10.125 9.75,-10.125 5.15625,0 11.0625,4.59375 6,4.59375 6,9.5625 0,6.1875 -5.53125,9.84375 -4.875,3.28125 -11.625,3.28125 -1.3125,0 -4.21875,-1.59375 0.375,8.90625 5.25,8.90625 4.125,0 8.0625,-2.34375 4.03125,-2.34375 5.15625,-2.34375 4.03125,0 4.03125,2.25 z m -10.21875,-17.71875 q 0,-2.34375 -1.40625,-4.40625 -1.3125,-2.15625 -3.5625,-2.15625 -3.09375,0 -4.78125,2.71875 -1.40625,2.34375 -1.40625,5.53125 0,1.78125 1.21875,2.90625 1.21875,1.125 3.09375,1.125 6.84375,0 6.84375,-5.71875 z"
       style="font-weight:700;font-size:75px;font-family:Noteworthy;fill:#ffffff"
       id="path4158" />
    <path
       d="m 438.81189,84.235748 q -1.40625,2.15625 -3.46875,2.15625 -1.59375,0 -5.25,-1.875 l 0,-1.125 q 0,-2.0625 0.0937,-6.09375 0.1875,-4.03125 0.1875,-5.90625 0,-20.0625 -6,-20.0625 -1.6875,0 -3.84375,2.625 -6.65625,8.0625 -6.65625,19.40625 0,1.59375 0.5625,4.78125 0.65625,3.09375 0.65625,4.6875 0,1.3125 -1.21875,2.15625 -1.21875,0.84375 -2.625,0.84375 -5.625,0 -5.625,-7.125 l 0,-19.59375 q 0,-0.75 0.1875,-2.15625 0.1875,-1.5 0.1875,-2.25 0,-1.125 -0.375,-3.28125 -0.28125,-2.15625 -0.28125,-3.1875 0,-1.5 1.6875,-2.8125 1.78125,-1.40625 3.1875,-1.40625 2.0625,0 4.21875,2.34375 l -0.28125,3.75 q 3.46875,-5.53125 8.53125,-5.53125 3.28125,0 6.9375,2.25 3.65625,2.25 5.34375,5.0625 3.84375,7.125 3.84375,18.75 l 0,13.59375 z"
       style="font-weight:700;font-size:75px;font-family:Noteworthy;fill:#ffffff"
       id="path4160" />
    <path
       d="m 492.8822,62.579498 q 0,9.5625 -3.375,16.21875 -4.21875,8.625 -12.75,8.625 -4.59375,0 -7.875,-2.625 0,1.03125 0,2.8125 0,2.0625 0,2.8125 0,9 2.0625,14.156252 0.9375,2.0625 0.9375,2.625 0,3.1875 -3.75,3.1875 -2.8125,0 -4.21875,-1.03125 -1.03125,-0.65625 -2.0625,-4.6875 -0.84375,-3.5625 -0.84375,-5.437502 l 0,-22.59375 q 0,-3.09375 0.375,-8.4375 0.375,-6 0.46875,-8.34375 0.0937,-2.34375 0,-6.1875 -0.0937,-4.875 -0.0937,-6.28125 0,-7.96875 5.25,-7.96875 1.3125,0 2.4375,0.9375 1.125,0.84375 1.125,2.0625 0,2.0625 -0.46875,7.5 3.65625,-5.15625 8.8125,-5.15625 6.9375,0 10.6875,5.625 3.28125,4.875 3.28125,12.1875 z m -8.34375,-0.84375 q 0,-10.125 -4.3125,-10.125 -1.875,0 -4.875,3.65625 -5.8125,7.03125 -6.375,19.40625 1.03125,0.5625 3.65625,3.9375 2.0625,2.53125 4.125,2.53125 7.78125,0 7.78125,-19.40625 z"
       style="font-weight:700;font-size:75px;font-family:Noteworthy;fill:#ffffff"
       id="path4162" />
    <path
       d="m 529.37439,76.641998 q 0,4.6875 -6.375,7.3125 -4.96875,2.0625 -10.40625,2.0625 -14.4375,0 -14.4375,-16.40625 0,-6.75 3.28125,-15 4.03125,-10.125 9.75,-10.125 5.15625,0 11.0625,4.59375 6,4.59375 6,9.5625 0,6.1875 -5.53125,9.84375 -4.875,3.28125 -11.625,3.28125 -1.3125,0 -4.21875,-1.59375 0.375,8.90625 5.25,8.90625 4.125,0 8.0625,-2.34375 4.03125,-2.34375 5.15625,-2.34375 4.03125,0 4.03125,2.25 z m -10.21875,-17.71875 q 0,-2.34375 -1.40625,-4.40625 -1.3125,-2.15625 -3.5625,-2.15625 -3.09375,0 -4.78125,2.71875 -1.40625,2.34375 -1.40625,5.53125 0,1.78125 1.21875,2.90625 1.21875,1.125 3.09375,1.125 6.84375,0 6.84375,-5.71875 z"
       style="font-weight:700;font-size:75px;font-family:Noteworthy;fill:#ffffff"
       id="path4164" />
    <path
       d="m 544.90759,82.360748 q 0,1.6875 -1.40625,2.8125 -1.3125,1.21875 -3.09375,1.21875 -5.90625,0 -5.90625,-15.46875 0,-7.03125 0.0937,-21.09375 0.1875,-14.0625 0.1875,-21.09375 0,-1.125 -0.28125,-3.28125 -0.28125,-2.15625 -0.28125,-3.1875 3.09375,-2.0625 4.875,-2.0625 2.0625,0 3.9375,1.40625 1.875,1.3125 1.875,3.375 0,1.03125 -0.46875,2.4375 -0.65625,2.25 -0.75,2.4375 -1.21875,5.8125 -1.21875,16.5 0,16.96875 0,17.4375 0.28125,11.8125 1.96875,16.5 0.46875,1.3125 0.46875,2.0625 z"
       style="font-weight:700;font-size:75px;font-family:Noteworthy;fill:#ffffff"
       id="path4166" />
    <path
       d="m 561.38416,35.673248 q 0,2.0625 -1.40625,3.375 -1.40625,1.3125 -3.46875,1.3125 -2.4375,0 -4.59375,-1.6875 -2.0625,-1.6875 -2.0625,-4.125 0,-2.0625 1.40625,-3.375 1.5,-1.3125 3.65625,-1.3125 2.53125,0 4.5,1.6875 1.96875,1.59375 1.96875,4.125 z m -0.84375,13.125 q 0,1.6875 -0.75,4.78125 -0.75,3.09375 -0.75,4.78125 l 0,19.3125 q 0,1.78125 1.03125,5.625 -1.40625,2.15625 -3.09375,2.15625 -5.90625,0 -6.46875,-5.90625 -0.9375,-10.96875 -0.9375,-16.5 0,-9.28125 0.75,-15.5625 -0.0937,-0.46875 -0.0937,-0.9375 0,-1.6875 2.625,-1.6875 2.34375,0 4.6875,0.9375 3,1.03125 3,3 z"
       style="font-weight:700;font-size:75px;font-family:Noteworthy;fill:#ffffff"
       id="path4168" />
    <path
       d="m 584.95642,51.329498 q 0,2.53125 -7.78125,3.5625 -0.1875,2.0625 -0.1875,9.375 l 0,6.1875 q 0,1.875 0.5625,5.53125 0.65625,3.65625 0.65625,5.4375 0,1.5 -1.5,2.71875 -1.5,1.125 -3,1.125 -2.34375,0 -3.9375,-4.03125 -1.21875,-3.09375 -1.21875,-6 l 0,-19.875 q -4.3125,-0.65625 -4.96875,-0.84375 -2.4375,-0.75 -2.4375,-2.15625 0,-0.375 0.1875,-0.84375 2.4375,-3.46875 5.4375,-3.46875 0.1875,0 0.5625,0 0.375,0.09375 0.5625,0.09375 1.96875,0 1.875,-4.59375 l 0,-6.84375 q -0.5625,-1.03125 -0.5625,-1.78125 0,-1.21875 1.40625,-2.15625 1.5,-1.03125 2.8125,-1.03125 1.96875,0 3.75,1.875 1.78125,1.78125 1.78125,3.84375 0,2.25 -0.75,4.5 -0.65625,2.15625 -0.5625,4.5 l 0,0.375 q 7.3125,0.75 7.3125,4.5 z"
       style="font-weight:700;font-size:75px;font-family:Noteworthy;fill:#ffffff"
       id="path4170" />
  </g>
</svg>
