<?xml version="1.0" encoding="UTF-8" standalone="no"?>
<!-- Created with Inkscape (http://www.inkscape.org/) -->

<svg
   xmlns:dc="http://purl.org/dc/elements/1.1/"
   xmlns:cc="http://creativecommons.org/ns#"
   xmlns:rdf="http://www.w3.org/1999/02/22-rdf-syntax-ns#"
   xmlns:svg="http://www.w3.org/2000/svg"
   xmlns="http://www.w3.org/2000/svg"
   xmlns:sodipodi="http://sodipodi.sourceforge.net/DTD/sodipodi-0.dtd"
   xmlns:inkscape="http://www.inkscape.org/namespaces/inkscape"
   width="60mm"
   height="15mm"
   viewBox="0 0 212.59843 53.149606"
   id="svg2"
   version="1.1"
   inkscape:version="0.91 r13725"
   sodipodi:docname="logo_white.svg">
  <defs
     id="defs4" />
  <sodipodi:namedview
     id="base"
     pagecolor="#828282"
     bordercolor="#666666"
     borderopacity="1.0"
     inkscape:pageopacity="0"
     inkscape:pageshadow="2"
     inkscape:zoom="4.34"
     inkscape:cx="117.90565"
     inkscape:cy="-0.85031906"
     inkscape:document-units="px"
     inkscape:current-layer="layer1"
     showgrid="false"
     inkscape:window-width="1732"
     inkscape:window-height="1056"
     inkscape:window-x="493"
     inkscape:window-y="97"
     inkscape:window-maximized="0" />
  <metadata
     id="metadata7">
    <rdf:RDF>
      <cc:Work
         rdf:about="">
        <dc:format>image/svg+xml</dc:format>
        <dc:type
           rdf:resource="http://purl.org/dc/dcmitype/StillImage" />
        <dc:title></dc:title>
      </cc:Work>
    </rdf:RDF>
  </metadata>
  <g
     inkscape:label="Layer 1"
     inkscape:groupmode="layer"
     id="layer1"
     transform="translate(0,-999.2127)">
    <g
       transform="translate(2.811245,1003.2288)"
       style="font-style:normal;font-variant:normal;font-weight:bold;font-stretch:normal;font-size:22.5px;line-height:125%;font-family:Noteworthy;-inkscape-font-specification:'Noteworthy Bold';letter-spacing:0px;word-spacing:0px;fill:#ffffff;fill-opacity:1;stroke:none;stroke-width:1px;stroke-linecap:butt;stroke-linejoin:miter;stroke-opacity:1"
       id="flowRoot3344">
      <path
         d="m 21.935547,11.128131 q 0,0.253125 -0.39375,0.5625 -0.39375,0.309375 -0.45,0.45 -0.73125,1.378125 -0.675,5.428125 l 0.02812,1.096875 q 0.08438,-0.02813 0.196875,-0.02813 0.421875,0 0.7875,0.478125 0.39375,0.478125 0.39375,0.928125 0,0.3375 -0.534375,0.478125 -0.421875,0.08437 -0.84375,0.16875 0.02813,1.321875 0.05625,2.671875 0.05625,1.715625 0.365625,2.559375 0.225,0.703125 0.225,0.928125 0,0.5625 -0.421875,1.040625 -0.421875,0.45 -0.984375,0.45 -1.06875,0 -1.40625,-1.125 -0.05625,-0.225 -0.253125,-1.96875 -0.05625,-0.61875 -0.05625,-1.490625 l 0,-1.153125 q -0.02812,-1.153125 -0.140625,-1.884375 -1.63125,0.05625 -3.88125,0.478125 -1.940625,0.365625 -3.853125,0.73125 0.1125,0.365625 0.1125,3.0375 0,2.1375 0.646875,2.8125 0.08437,0.140625 0.08437,0.28125 0,0.73125 -1.1250001,0.73125 -1.040625,0 -1.63125,-0.646875 -0.365625,-0.39375 -0.703125,-5.85 -0.534375,-0.1125 -0.84375,-0.646875 -0.309375,-0.534375 -0.309375,-1.125 0,-0.3375 0.365625,-0.45 0.365625,-0.140625 0.703125,-0.253125 0.028125,-0.365625 0.1125,-1.321875 0.084375,-0.815625 0.084375,-1.29375 0,-4.95 0.534375,-6.3 0.45,-1.096875 1.546875,-1.096875 0.6750001,0 1.2656251,0.45 0.590625,0.421875 0.590625,1.06875 0,0.3375 -0.225,0.84375 -0.309375,0.675 -0.3375,0.7875 -0.759375,2.3625 -0.759375,5.625 0,0.534375 0,0.646875 0.253125,-0.02813 1.321875,-0.225 3.31875,-0.675 6.24375,-0.675 0.08438,-4.134375 0.225,-5.34375 0.478125,-4.05 1.940625,-4.05 0.871875,0 1.434375,0.675 0.5625,0.646875 0.5625,1.51875 z"
         style="fill:#ffffff"
         id="path3338" />
      <path
         d="m 33.995898,17.653131 q -0.253125,1.40625 -0.478125,2.784375 -0.28125,1.63125 -0.28125,2.784375 l 0,7.65 q 0,2.08125 -1.209375,3.178125 -1.18125,1.096875 -3.2625,1.096875 -1.35,0 -2.98125,-0.703125 -1.940625,-0.815625 -1.940625,-1.96875 0,-0.39375 0.309375,-0.675 0.3375,-0.253125 0.73125,-0.253125 0.253125,0 1.209375,0.759375 0.95625,0.759375 2.19375,0.759375 1.575,0 2.109375,-1.153125 0.39375,-0.7875 0.39375,-2.53125 0,-0.646875 -0.02812,-1.06875 -0.928125,0.61875 -2.08125,0.61875 -2.109375,0 -3.2625,-1.51875 -1.040625,-1.378125 -1.040625,-3.515625 0,-0.225 0.28125,-7.0875 0.84375,-0.365625 1.35,-0.365625 0.5625,0 1.659375,0.675 -0.675,1.6875 -0.675,6.75 0,3.234375 1.63125,3.234375 1.209375,0 1.85625,-2.025 0.478125,-1.4625 0.478125,-3.0375 l 0,-3.43125 q 0,0.02812 -0.08437,-0.928125 1.153125,-0.5625 1.715625,-0.5625 0.590625,0 1.40625,0.534375 z"
         style="fill:#ffffff"
         id="path3340" />
      <path
         d="m 44.959375,17.681256 q 0,2.025 -1.29375,6.1875 -1.51875,4.78125 -2.953125,4.78125 -2.053125,0 -3.65625,-4.021875 -0.984375,-2.503125 -1.603125,-5.85 -0.140625,-0.815625 -0.140625,-1.265625 0,-0.45 0.39375,-0.7875 0.421875,-0.365625 0.871875,-0.365625 0.534375,0 1.659375,0.815625 -0.196875,0.646875 -0.196875,1.096875 0,1.51875 0.73125,3.965625 0.759375,2.446875 1.63125,3.684375 l 0,0.08438 q 1.0125,0 1.575,-3.825 0.39375,-2.615625 0.39375,-4.78125 0,-0.421875 0.421875,-0.73125 0.45,-0.309375 0.871875,-0.309375 1.29375,0 1.29375,1.321875 z"
         style="fill:#ffffff"
         id="path3342" />
      <path
         d="m 54.792578,14.728131 q 0,0.45 -0.39375,0.759375 -0.39375,0.28125 -0.871875,0.28125 -0.478125,0 -0.871875,-0.28125 -0.39375,-0.309375 -0.39375,-0.759375 0,-0.478125 0.39375,-0.759375 0.39375,-0.309375 0.871875,-0.309375 0.478125,0 0.871875,0.309375 0.39375,0.28125 0.39375,0.759375 z m -3.796875,0 q 0,0.45 -0.39375,0.759375 -0.39375,0.28125 -0.871875,0.28125 -0.478125,0 -0.871875,-0.28125 -0.39375,-0.309375 -0.39375,-0.759375 0,-0.478125 0.39375,-0.759375 0.39375,-0.309375 0.871875,-0.309375 0.478125,0 0.871875,0.309375 0.39375,0.28125 0.39375,0.759375 z m 5.68125,8.94375 q 0,3.628125 -0.225,5.11875 -0.140625,0.871875 -1.18125,0.871875 -1.575,0 -1.40625,-1.575 -1.40625,0.675 -2.925,0.675 -1.4625,0 -2.784375,-0.73125 -1.575,-0.871875 -1.575,-2.221875 0,-1.321875 1.8,-2.475 1.63125,-1.040625 3.065625,-1.040625 l 2.390625,0 0,-0.675 q 0.02812,-2.953125 -1.74375,-2.953125 -2.221875,0 -2.221875,2.08125 0,0.703125 -0.7875,0.703125 -0.478125,0 -1.0125,-0.421875 -0.50625,-0.45 -0.50625,-0.928125 0,-1.575 1.125,-2.5875 1.125,-1.0125 2.7,-1.0125 5.2875,0 5.2875,7.171875 z m -2.840625,1.0125 q 0,-0.5625 -0.84375,-0.5625 -3.515625,0 -3.515625,1.659375 0,0.9 1.546875,0.9 0.95625,0 1.8,-0.534375 1.0125,-0.590625 1.0125,-1.4625 z"
         style="fill:#ffffff"
         id="path3344" />
      <path
         d="m 68.661719,28.256256 q -0.421875,0.646875 -1.040625,0.646875 -0.478125,0 -1.575,-0.5625 l 0,-0.3375 q 0,-0.61875 0.02813,-1.828125 0.05625,-1.209375 0.05625,-1.771875 0,-6.01875 -1.8,-6.01875 -0.50625,0 -1.153125,0.7875 -1.996875,2.41875 -1.996875,5.821875 0,0.478125 0.16875,1.434375 0.196875,0.928125 0.196875,1.40625 0,0.39375 -0.365625,0.646875 -0.365625,0.253125 -0.7875,0.253125 -1.6875,0 -1.6875,-2.1375 l 0,-5.878125 q 0,-0.225 0.05625,-0.646875 0.05625,-0.45 0.05625,-0.675 0,-0.3375 -0.1125,-0.984375 -0.08438,-0.646875 -0.08438,-0.95625 0,-0.45 0.50625,-0.84375 0.534375,-0.421875 0.95625,-0.421875 0.61875,0 1.265625,0.703125 l -0.08438,1.125 q 1.040625,-1.659375 2.559375,-1.659375 0.984375,0 2.08125,0.675 1.096875,0.675 1.603125,1.51875 1.153125,2.1375 1.153125,5.625 l 0,4.078125 z"
         style="fill:#ffffff"
         id="path3346" />
      <path
         d="m 89.354687,28.396881 q -0.95625,0.590625 -1.462499,0.590625 -0.365626,0 -1.125,-0.39375 0,-0.45 0.02812,-1.546875 0.02813,-0.984375 0.02813,-1.546875 0,-7.48125 -1.2375,-7.48125 -0.928124,0 -1.490624,2.278125 -0.421875,1.659375 -0.421875,3.065625 l 0,2.5875 q 0,0.196875 0.1125,0.590625 0.140625,0.365625 0.140625,0.5625 0,0.45 -0.478126,0.815625 -0.478124,0.3375 -0.928124,0.3375 -0.478126,0 -0.95625,-0.478125 -0.478126,-0.478125 -0.478126,-0.928125 l 0,-5.23125 q 0,-3.178125 -0.703125,-3.178125 -0.112499,0 -0.478125,0.534375 -1.996874,2.7 -1.996874,5.79375 0,0.45 0.1125,1.321875 0.112499,0.84375 0.112499,1.265625 0,0.5625 -0.365624,0.928125 -0.337501,0.365625 -0.900001,0.365625 -0.646874,0 -1.040625,-0.45 -0.140625,-0.196875 -0.337499,-1.321875 -0.168751,-1.040625 -0.168751,-1.434375 l 0,-6.13125 q 0,-0.675 0.337501,-1.8 0.421875,-1.35 0.899999,-1.35 0.5625,0 1.0125,0.45 0.450001,0.421875 0.39375,0.984375 0.815625,-1.35 2.109375,-1.35 1.603126,0 2.615626,2.1375 0.534375,-1.265625 0.95625,-1.74375 0.703125,-0.815625 1.743749,-0.815625 1.040625,0 2.109375,1.096875 1.85625,1.884375 1.85625,6.440625 l 0,5.034375 z"
         style="fill:#ffffff"
         id="path3348" />
      <path
         d="m 95.150195,13.687506 q 0,0.61875 -0.421875,1.0125 -0.421875,0.39375 -1.040625,0.39375 -0.73125,0 -1.378125,-0.50625 -0.61875,-0.50625 -0.61875,-1.2375 0,-0.61875 0.421875,-1.0125 0.45,-0.39375 1.096875,-0.39375 0.759375,0 1.35,0.50625 0.590625,0.478125 0.590625,1.2375 z m -0.253125,3.9375 q 0,0.50625 -0.225,1.434375 -0.225,0.928125 -0.225,1.434375 l 0,5.79375 q 0,0.534375 0.309375,1.6875 -0.421875,0.646875 -0.928125,0.646875 -1.771875,0 -1.940625,-1.771875 -0.28125,-3.290625 -0.28125,-4.95 0,-2.784375 0.225,-4.66875 -0.02813,-0.140625 -0.02813,-0.28125 0,-0.50625 0.7875,-0.50625 0.703125,0 1.40625,0.28125 0.9,0.309375 0.9,0.9 z"
         style="fill:#ffffff"
         id="path3350" />
      <path
         d="m 105.14687,25.978131 q 0,1.40625 -1.91249,2.19375 -1.49063,0.61875 -3.12188,0.61875 -4.33125,0 -4.33125,-4.921875 0,-2.025 0.984375,-4.5 1.209375,-3.0375 2.925,-3.0375 1.546875,0 3.318755,1.378125 1.8,1.378125 1.8,2.86875 0,1.85625 -1.65938,2.953125 -1.4625,0.984375 -3.4875,0.984375 -0.39375,0 -1.265625,-0.478125 0.1125,2.671875 1.575,2.671875 1.237495,0 2.418755,-0.703125 1.20937,-0.703125 1.54687,-0.703125 1.20937,0 1.20937,0.675 z m -3.06562,-5.315625 q 0,-0.703125 -0.42188,-1.321875 -0.39374,-0.646875 -1.06874,-0.646875 -0.92813,0 -1.43438,0.815625 -0.421875,0.703125 -0.421875,1.659375 0,0.534375 0.365625,0.871875 0.365625,0.3375 0.92813,0.3375 2.05312,0 2.05312,-1.715625 z"
         style="fill:#ffffff"
         id="path3352" />
      <path
         d="m 109.80684,27.693756 q 0,0.50625 -0.42188,0.84375 -0.39375,0.365625 -0.92812,0.365625 -1.77188,0 -1.77188,-4.640625 0,-2.109375 0.0281,-6.328125 0.0563,-4.21875 0.0563,-6.328125 0,-0.3375 -0.0844,-0.984375 -0.0844,-0.646875 -0.0844,-0.95625 0.92812,-0.61875 1.4625,-0.61875 0.61875,0 1.18125,0.421875 0.5625,0.39375 0.5625,1.0125 0,0.309375 -0.14063,0.73125 -0.19687,0.675 -0.225,0.73125 -0.36562,1.74375 -0.36562,4.95 0,5.090625 0,5.23125 0.0844,3.54375 0.59062,4.95 0.14063,0.39375 0.14063,0.61875 z"
         style="fill:#ffffff"
         id="path3354" />
      <path
         d="m 120.35195,25.978131 q 0,1.40625 -1.9125,2.19375 -1.49062,0.61875 -3.12187,0.61875 -4.33125,0 -4.33125,-4.921875 0,-2.025 0.98437,-4.5 1.20938,-3.0375 2.925,-3.0375 1.54688,0 3.31875,1.378125 1.8,1.378125 1.8,2.86875 0,1.85625 -1.65937,2.953125 -1.4625,0.984375 -3.4875,0.984375 -0.39375,0 -1.26563,-0.478125 0.1125,2.671875 1.575,2.671875 1.2375,0 2.41875,-0.703125 1.20938,-0.703125 1.54688,-0.703125 1.20937,0 1.20937,0.675 z m -3.06562,-5.315625 q 0,-0.703125 -0.42188,-1.321875 -0.39375,-0.646875 -1.06875,-0.646875 -0.92812,0 -1.43437,0.815625 -0.42188,0.703125 -0.42188,1.659375 0,0.534375 0.36563,0.871875 0.36562,0.3375 0.92812,0.3375 2.05313,0 2.05313,-1.715625 z"
         style="fill:#ffffff"
         id="path3356" />
      <path
         d="m 131.98691,28.256256 q -0.42187,0.646875 -1.04062,0.646875 -0.47813,0 -1.575,-0.5625 l 0,-0.3375 q 0,-0.61875 0.0281,-1.828125 0.0563,-1.209375 0.0563,-1.771875 0,-6.01875 -1.8,-6.01875 -0.50625,0 -1.15312,0.7875 -1.99688,2.41875 -1.99688,5.821875 0,0.478125 0.16875,1.434375 0.19688,0.928125 0.19688,1.40625 0,0.39375 -0.36563,0.646875 -0.36562,0.253125 -0.7875,0.253125 -1.6875,0 -1.6875,-2.1375 l 0,-5.878125 q 0,-0.225 0.0563,-0.646875 0.0562,-0.45 0.0562,-0.675 0,-0.3375 -0.1125,-0.984375 -0.0844,-0.646875 -0.0844,-0.95625 0,-0.45 0.50625,-0.84375 0.53437,-0.421875 0.95625,-0.421875 0.61875,0 1.26562,0.703125 l -0.0844,1.125 q 1.04062,-1.659375 2.55937,-1.659375 0.98438,0 2.08125,0.675 1.09688,0.675 1.60313,1.51875 1.15312,2.1375 1.15312,5.625 l 0,4.078125 z"
         style="fill:#ffffff"
         id="path3358" />
      <path
         d="m 148.20801,21.759381 q 0,2.86875 -1.0125,4.865625 -1.26563,2.5875 -3.825,2.5875 -1.37813,0 -2.3625,-0.7875 0,0.309375 0,0.84375 0,0.61875 0,0.84375 0,2.7 0.61875,4.246875 0.28125,0.61875 0.28125,0.7875 0,0.95625 -1.125,0.95625 -0.84375,0 -1.26563,-0.309375 -0.30937,-0.196875 -0.61875,-1.40625 -0.25312,-1.06875 -0.25312,-1.63125 l 0,-6.778125 q 0,-0.928125 0.1125,-2.53125 0.1125,-1.8 0.14062,-2.503125 0.0281,-0.703125 0,-1.85625 -0.0281,-1.4625 -0.0281,-1.884375 0,-2.390625 1.575,-2.390625 0.39375,0 0.73125,0.28125 0.3375,0.253125 0.3375,0.61875 0,0.61875 -0.14063,2.25 1.09688,-1.546875 2.64375,-1.546875 2.08125,0 3.20625,1.6875 0.98438,1.4625 0.98438,3.65625 z m -2.50313,-0.253125 q 0,-3.0375 -1.29375,-3.0375 -0.5625,0 -1.4625,1.096875 -1.74375,2.109375 -1.9125,5.821875 0.30938,0.16875 1.09688,1.18125 0.61875,0.759375 1.2375,0.759375 2.33437,0 2.33437,-5.821875 z"
         style="fill:#ffffff"
         id="path3360" />
      <path
         d="m 159.15566,25.978131 q 0,1.40625 -1.9125,2.19375 -1.49062,0.61875 -3.12187,0.61875 -4.33125,0 -4.33125,-4.921875 0,-2.025 0.98437,-4.5 1.20938,-3.0375 2.925,-3.0375 1.54688,0 3.31875,1.378125 1.8,1.378125 1.8,2.86875 0,1.85625 -1.65937,2.953125 -1.4625,0.984375 -3.4875,0.984375 -0.39375,0 -1.26563,-0.478125 0.1125,2.671875 1.575,2.671875 1.2375,0 2.41875,-0.703125 1.20938,-0.703125 1.54688,-0.703125 1.20937,0 1.20937,0.675 z m -3.06562,-5.315625 q 0,-0.703125 -0.42188,-1.321875 -0.39375,-0.646875 -1.06875,-0.646875 -0.92812,0 -1.43437,0.815625 -0.42188,0.703125 -0.42188,1.659375 0,0.534375 0.36563,0.871875 0.36562,0.3375 0.92812,0.3375 2.05313,0 2.05313,-1.715625 z"
         style="fill:#ffffff"
         id="path3362" />
      <path
         d="m 163.81562,27.693756 q 0,0.50625 -0.42187,0.84375 -0.39375,0.365625 -0.92813,0.365625 -1.77187,0 -1.77187,-4.640625 0,-2.109375 0.0281,-6.328125 0.0563,-4.21875 0.0563,-6.328125 0,-0.3375 -0.0844,-0.984375 -0.0844,-0.646875 -0.0844,-0.95625 0.92813,-0.61875 1.4625,-0.61875 0.61875,0 1.18125,0.421875 0.5625,0.39375 0.5625,1.0125 0,0.309375 -0.14062,0.73125 -0.19688,0.675 -0.225,0.73125 -0.36563,1.74375 -0.36563,4.95 0,5.090625 0,5.23125 0.0844,3.54375 0.59063,4.95 0.14062,0.39375 0.14062,0.61875 z"
         style="fill:#ffffff"
         id="path3364" />
      <path
         d="m 168.75859,13.687506 q 0,0.61875 -0.42187,1.0125 -0.42188,0.39375 -1.04063,0.39375 -0.73125,0 -1.37812,-0.50625 -0.61875,-0.50625 -0.61875,-1.2375 0,-0.61875 0.42187,-1.0125 0.45,-0.39375 1.09688,-0.39375 0.75937,0 1.35,0.50625 0.59062,0.478125 0.59062,1.2375 z m -0.25312,3.9375 q 0,0.50625 -0.225,1.434375 -0.225,0.928125 -0.225,1.434375 l 0,5.79375 q 0,0.534375 0.30937,1.6875 -0.42187,0.646875 -0.92812,0.646875 -1.77188,0 -1.94063,-1.771875 -0.28125,-3.290625 -0.28125,-4.95 0,-2.784375 0.225,-4.66875 -0.0281,-0.140625 -0.0281,-0.28125 0,-0.50625 0.7875,-0.50625 0.70312,0 1.40625,0.28125 0.9,0.309375 0.9,0.9 z"
         style="fill:#ffffff"
         id="path3366" />
      <path
         d="m 175.83027,18.384381 q 0,0.759375 -2.33437,1.06875 -0.0563,0.61875 -0.0563,2.8125 l 0,1.85625 q 0,0.5625 0.16875,1.659375 0.19687,1.096875 0.19687,1.63125 0,0.45 -0.45,0.815625 -0.45,0.3375 -0.9,0.3375 -0.70312,0 -1.18125,-1.209375 -0.36562,-0.928125 -0.36562,-1.8 l 0,-5.9625 q -1.29375,-0.196875 -1.49063,-0.253125 -0.73125,-0.225 -0.73125,-0.646875 0,-0.1125 0.0563,-0.253125 0.73125,-1.040625 1.63125,-1.040625 0.0563,0 0.16875,0 0.1125,0.02812 0.16875,0.02812 0.59063,0 0.5625,-1.378125 l 0,-2.053125 q -0.16875,-0.309375 -0.16875,-0.534375 0,-0.365625 0.42188,-0.646875 0.45,-0.309375 0.84375,-0.309375 0.59062,0 1.125,0.5625 0.53437,0.534375 0.53437,1.153125 0,0.675 -0.225,1.35 -0.19687,0.646875 -0.16875,1.35 l 0,0.1125 q 2.19375,0.225 2.19375,1.35 z"
         style="fill:#ffffff"
         id="path3368" />
      <path
         d="m 189.24766,18.778131 q 0,0.196875 -0.0563,0.61875 -0.59063,0.84375 -1.2375,0.84375 -0.53438,0 -0.95625,-0.61875 -0.0563,-1.265625 -0.9,-1.265625 -0.50625,0 -1.2375,2.671875 -0.3375,1.18125 -0.3375,3.290625 0,1.996875 0.19687,2.41875 0.225,0.534375 0.225,0.73125 0,0.478125 -0.45,0.7875 -0.42187,0.28125 -0.95625,0.28125 -1.51875,0 -1.51875,-1.40625 0,-0.140625 0.0563,-0.39375 0.0844,-0.253125 0.0844,-0.365625 0,-1.434375 -0.14063,-4.246875 -0.14062,-2.840625 -0.14062,-4.246875 0,-1.265625 1.51875,-1.265625 0.9,0 1.2375,0.534375 0.7875,-0.871875 1.77187,-0.871875 0.675,0 1.29375,0.365625 0.42188,0.225 0.98438,0.984375 0.5625,0.73125 0.5625,1.153125 z"
         style="fill:#ffffff"
         id="path3370" />
      <path
         d="m 200.46074,17.653131 q -0.25312,1.40625 -0.47812,2.784375 -0.28125,1.63125 -0.28125,2.784375 l 0,7.65 q 0,2.08125 -1.20938,3.178125 -1.18125,1.096875 -3.2625,1.096875 -1.35,0 -2.98125,-0.703125 -1.94062,-0.815625 -1.94062,-1.96875 0,-0.39375 0.30937,-0.675 0.3375,-0.253125 0.73125,-0.253125 0.25313,0 1.20938,0.759375 0.95625,0.759375 2.19375,0.759375 1.575,0 2.10937,-1.153125 0.39375,-0.7875 0.39375,-2.53125 0,-0.646875 -0.0281,-1.06875 -0.92813,0.61875 -2.08125,0.61875 -2.10938,0 -3.2625,-1.51875 -1.04063,-1.378125 -1.04063,-3.515625 0,-0.225 0.28125,-7.0875 0.84375,-0.365625 1.35,-0.365625 0.5625,0 1.65938,0.675 -0.675,1.6875 -0.675,6.75 0,3.234375 1.63125,3.234375 1.20937,0 1.85625,-2.025 0.47812,-1.4625 0.47812,-3.0375 l 0,-3.43125 q 0,0.02812 -0.0844,-0.928125 1.15312,-0.5625 1.71562,-0.5625 0.59063,0 1.40625,0.534375 z"
         style="fill:#ffffff"
         id="path3372" />
    </g>
  </g>
</svg>
